<?xml version="1.0" standalone="no"?>
<!DOCTYPE svg PUBLIC "-//W3C//DTD SVG 20010904//EN"
 "http://www.w3.org/TR/2001/REC-SVG-20010904/DTD/svg10.dtd">
<svg version="1.0" xmlns="http://www.w3.org/2000/svg"
 width="251.000000pt" height="279.000000pt" viewBox="0 0 251.000000 279.000000"
 preserveAspectRatio="xMidYMid meet">

<g transform="translate(0.000000,279.000000) scale(0.100000,-0.100000)"
 stroke="none">
<path d="M470 2763 c-81 -28 -146 -87 -191 -173 -20 -38 -24 -59 -24 -140 0
-111 19 -164 81 -225 37 -35 144 -95 172 -95 17 0 16 -94 -2 -109 -7 -6 -38
-18 -67 -27 -131 -39 -242 -117 -313 -222 -121 -177 -136 -402 -40 -602 34
-72 57 -96 562 -598 311 -309 541 -530 561 -538 73 -33 71 -35 495 380 728
714 679 662 719 746 114 238 83 486 -83 664 -76 80 -138 121 -242 157 -44 15
-85 32 -90 37 -5 5 -8 31 -6 57 l3 48 75 38 c124 63 182 153 182 289 1 134
-71 248 -191 304 -68 31 -215 30 -289 -3 -68 -31 -144 -113 -171 -186 -27 -72
-26 -91 4 -120 45 -46 94 -24 120 56 22 64 70 112 135 134 43 14 58 15 101 5
118 -29 190 -158 145 -263 -22 -51 -54 -75 -179 -132 -50 -23 -61 -45 -67
-140 l-5 -80 -30 -3 c-66 -7 -183 -34 -238 -57 -90 -36 -160 -83 -251 -167
-47 -43 -87 -78 -91 -78 -4 0 -49 40 -101 89 -136 130 -225 172 -464 219 l-35
7 -5 75 c-6 93 -17 112 -77 140 -115 53 -137 67 -158 100 -71 110 -16 243 117
285 49 16 63 17 100 6 82 -25 140 -86 153 -163 11 -63 74 -89 115 -48 54 54
-11 219 -114 289 -86 60 -219 78 -316 44z m309 -939 c124 -36 187 -79 331
-226 74 -76 139 -138 145 -138 5 0 75 65 155 144 94 93 163 152 195 169 189
94 376 91 523 -10 175 -120 226 -370 110 -544 -23 -34 -182 -197 -391 -401
-194 -189 -404 -394 -469 -457 -64 -62 -121 -112 -127 -110 -14 5 -905 880
-953 936 -57 67 -81 141 -81 248 -1 103 20 168 78 247 57 78 161 141 265 162
40 8 159 -3 219 -20z"/>
<path d="M1878 1552 c-9 -4 -161 -148 -338 -321 l-321 -314 -67 64 c-37 35
-130 126 -207 202 -128 126 -142 137 -176 137 -29 0 -43 -7 -63 -31 -54 -64
-52 -67 216 -336 133 -133 253 -247 268 -253 17 -7 35 -8 51 -1 31 12 746 715
754 742 22 67 -52 137 -117 111z"/>
</g>
</svg>
