<svg width="18" height="27" viewBox="0 0 18 27" fill="none" xmlns="http://www.w3.org/2000/svg">
<path d="M17.3401 0.252686C17.0551 0.252686 16.7091 0.492686 15.7771 1.30469C15.4461 1.42469 15.0851 1.33469 14.6641 1.98169C12.2891 5.39469 10.4401 18.1577 8.86106 21.8417C8.54506 20.2477 7.88406 9.87369 7.62806 7.03269C7.59806 6.50669 7.65806 5.84469 7.65806 5.45469C7.65806 2.83869 7.08806 1.51469 4.47106 1.51469C3.14806 1.51469 1.84106 1.99669 1.14906 2.86869C0.819059 3.31869 0.698059 3.65069 0.698059 4.46169C0.698059 9.88969 1.99106 18.7887 3.43406 24.5917C3.88506 26.4117 5.50906 26.7567 7.04206 26.7567C7.76406 26.7567 8.48506 26.6667 9.50806 26.1557C13.0551 24.4257 14.0031 19.7057 14.9201 15.1207C15.0851 14.2937 15.9121 10.2947 16.3031 8.19069C16.8291 5.31869 17.4301 2.07169 17.7911 0.883685C17.9111 0.523685 17.6851 0.252686 17.3401 0.252686Z"/>
</svg>
